<svg xmlns="http://www.w3.org/2000/svg" version="1.1" xmlns:xlink="http://www.w3.org/1999/xlink" xmlns:svgjs="http://svgjs.dev/svgjs" width="1000" height="1000" viewBox="0 0 1000 1000"><rect width="1000" height="1000" fill="#ffffff"></rect><g transform="matrix(0.7,0,0,0.7,149.57648162663145,316.0120176114163)"><svg viewBox="0 0 396 208" data-background-color="#ffffff" preserveAspectRatio="xMidYMid meet" height="525" width="1000" xmlns="http://www.w3.org/2000/svg" xmlns:xlink="http://www.w3.org/1999/xlink"><defs></defs><g id="tight-bounds" transform="matrix(1,0,0,1,0.2395903940770836,0.13469481187540566)"><svg viewBox="0 0 395.52 207.73061039404186" height="207.73061039404186" width="395.52"><g><svg viewBox="0 0 395.52 207.73061039404186" height="207.73061039404186" width="395.52"><g transform="matrix(1,0,0,1,0,136.71430425909034)"><svg viewBox="0 0 395.52 71.01630613495152" height="71.01630613495152" width="395.52"><g><svg viewBox="0 0 395.52 71.01630613495152" height="71.01630613495152" width="395.52"><g><svg viewBox="0 0 395.52 71.01630613495152" height="71.01630613495152" width="395.52"><g transform="matrix(1,0,0,1,0,0)"><svg width="395.52" viewBox="1.1955745220184326 -37.44506072998047 255.88658142089844 45.94488525390625" height="71.01630613495152" data-palette-color="#085f63"><path d="M21.552-26.401l-1.327 4.303c-1.336-0.442-2.752-0.773-4.248-0.992-1.496-0.22-2.905-0.22-4.227-0.003v0c-1.802 0.297-3.169 0.945-4.099 1.943-0.93 0.998-1.278 2.207-1.043 3.628v0c0.165 1 0.664 1.813 1.496 2.439 0.833 0.626 1.857 1.12 3.072 1.48 1.222 0.366 2.502 0.686 3.837 0.959v0c1.13 0.212 2.265 0.498 3.405 0.857 1.134 0.36 2.192 0.858 3.175 1.494 0.982 0.629 1.818 1.477 2.508 2.546 0.689 1.062 1.168 2.415 1.439 4.06v0c0.308 1.868 0.127 3.638-0.543 5.309-0.665 1.664-1.789 3.082-3.373 4.255-1.577 1.172-3.592 1.96-6.046 2.365v0c-1.487 0.245-2.958 0.315-4.414 0.211-1.457-0.111-2.854-0.347-4.191-0.708-1.335-0.354-2.559-0.788-3.671-1.3v0l1.655-4.408c0.867 0.425 1.842 0.804 2.925 1.14 1.082 0.335 2.187 0.558 3.313 0.67 1.133 0.11 2.183 0.086 3.15-0.074v0c1.066-0.176 2.084-0.533 3.056-1.071 0.971-0.545 1.73-1.268 2.278-2.17 0.547-0.901 0.715-1.996 0.502-3.285v0c-0.181-1.099-0.633-1.977-1.357-2.635-0.724-0.664-1.622-1.189-2.691-1.573-1.077-0.383-2.215-0.692-3.417-0.926v0c-1.168-0.24-2.357-0.524-3.566-0.851-1.217-0.333-2.369-0.782-3.455-1.346-1.087-0.571-2.019-1.346-2.795-2.327-0.776-0.98-1.295-2.263-1.557-3.848v0c-0.308-1.868-0.133-3.576 0.524-5.123 0.656-1.554 1.707-2.862 3.153-3.925 1.452-1.07 3.202-1.825 5.252-2.265v0c2.355-0.388 4.452-0.437 6.29-0.145 1.84 0.298 3.503 0.737 4.99 1.316zM35.873 4.885l-5.114 0.609 11.157-38.622 0.298-0.035 19.913 34.918-5.938 0.708-14.714-27.29 3.458-2.93zM37.608-4.215l1.025-4.664 12.571-1.498 2.331 4.264zM99.213 0.336l-0.15 0.011-29.3-25.196 1.551 0.38 1.977 25.434-5.286 0.38-2.632-36.646 0.249-0.018 28.964 25.26-1.251-0.251-1.948-25.726 5.187-0.373zM105.434-31.545l-0.101-5.049 23.735-0.477 0.102 5.048-9.358 0.189 0.614 30.553-5.249 0.106-0.614-30.554zM136.919-1.389l0.229-35.609 5.25 0.034-0.229 35.609zM153.284-0.931l-5.144-0.235 17.319-36.279 0.3 0.014 13.938 37.703-5.974-0.272-10.055-29.328 3.889-2.326zM156.483-9.625l1.774-4.434 12.647 0.577 1.603 4.587zM213.852-14.336l-1.305 14.462c-0.53 0.381-1.252 0.744-2.167 1.089-0.914 0.339-1.934 0.622-3.059 0.849-1.118 0.227-2.258 0.395-3.419 0.504-1.155 0.11-2.24 0.119-3.256 0.027v0c-2.862-0.258-5.395-0.929-7.6-2.011-2.198-1.089-4.039-2.487-5.525-4.194-1.485-1.714-2.565-3.659-3.238-5.835-0.674-2.176-0.899-4.502-0.675-6.979v0c0.273-3.028 1.004-5.669 2.191-7.925 1.188-2.262 2.695-4.121 4.52-5.576 1.819-1.462 3.865-2.509 6.137-3.141 2.273-0.632 4.614-0.838 7.024-0.621v0c2.118 0.191 4.058 0.611 5.821 1.259 1.768 0.655 3.268 1.43 4.499 2.324v0l-2.146 4.636c-0.618-0.417-1.394-0.839-2.325-1.265-0.925-0.432-1.883-0.789-2.875-1.072-0.991-0.29-1.912-0.474-2.762-0.551v0c-2.085-0.188-3.978-0.055-5.679 0.401-1.695 0.456-3.181 1.202-4.459 2.238-1.278 1.029-2.305 2.329-3.084 3.899-0.785 1.576-1.27 3.39-1.455 5.441v0c-0.167 1.852 0.005 3.582 0.516 5.187 0.511 1.606 1.303 3.026 2.376 4.261 1.074 1.228 2.397 2.218 3.97 2.969 1.573 0.744 3.352 1.206 5.337 1.386v0c1.142 0.103 2.278 0.092 3.406-0.034 1.129-0.126 2.101-0.366 2.917-0.721v0l0.583-6.454-6.833-0.617 0.455-5.029zM220.881-13.465v0c0.355-2.428 1.149-4.656 2.382-6.686 1.241-2.035 2.808-3.774 4.703-5.215 1.902-1.44 4.004-2.481 6.307-3.121 2.309-0.633 4.71-0.767 7.204-0.402v0c2.454 0.359 4.697 1.171 6.728 2.438 2.031 1.274 3.764 2.874 5.201 4.802 1.436 1.928 2.464 4.045 3.084 6.353 0.621 2.301 0.754 4.665 0.399 7.092v0c-0.364 2.494-1.173 4.757-2.428 6.79-1.253 2.027-2.834 3.743-4.744 5.149-1.904 1.413-4.018 2.418-6.342 3.014-2.318 0.605-4.705 0.727-7.159 0.369v0c-2.494-0.364-4.759-1.157-6.797-2.377-2.032-1.22-3.756-2.769-5.173-4.647-1.41-1.877-2.417-3.975-3.022-6.293-0.598-2.317-0.712-4.739-0.343-7.266zM226.214-12.686v0c-0.265 1.814-0.179 3.555 0.258 5.222 0.43 1.666 1.143 3.175 2.138 4.527 0.988 1.35 2.203 2.468 3.644 3.352 1.44 0.891 3.05 1.466 4.831 1.727v0c1.748 0.255 3.433 0.161 5.054-0.283 1.614-0.438 3.081-1.164 4.401-2.176 1.32-1.013 2.422-2.257 3.304-3.732 0.876-1.476 1.446-3.12 1.711-4.934v0c0.264-1.807 0.178-3.545-0.259-5.212-0.43-1.666-1.135-3.184-2.114-4.554-0.973-1.362-2.179-2.495-3.616-3.398-1.438-0.904-3.031-1.484-4.779-1.74v0c-1.807-0.264-3.523-0.168-5.146 0.289-1.617 0.458-3.096 1.198-4.438 2.222-1.343 1.03-2.444 2.291-3.301 3.783-0.866 1.497-1.428 3.133-1.688 4.907z" opacity="1" transform="matrix(1,0,0,1,0,0)" fill="#000000" class="undefined-text-0" data-fill-palette-color="primary" id="text-0"></path></svg></g></svg></g></svg></g></svg></g><g transform="matrix(1,0,0,1,108.08503959316745,0)"><svg viewBox="0 0 179.34992081366508 114.90438332635155" height="114.90438332635155" width="179.34992081366508"><g><svg xmlns="http://www.w3.org/2000/svg" xmlns:xlink="http://www.w3.org/1999/xlink" version="1.1" x="0" y="0" viewBox="12 34.6376953125 126 80.724609375" enable-background="new 0 0 150 150" xml:space="preserve" height="114.90438332635155" width="179.34992081366508" class="icon-icon-0" data-fill-palette-color="accent" id="icon-0"><g fill="#49beb7" data-fill-palette-color="accent"><path d="M65.318 67.605h-11.425v11.407 36.35h14.113v-13.812c0-3.757 3.056-6.813 6.812-6.813h0.364c3.756 0 6.813 3.056 6.812 6.813v13.812h14.113V79.012v-11.407H83.927 65.318zM63.303 89.422h-2V78.98h2V89.422zM76 89.336h-2V78.895h2V89.336zM86.052 78.98h2V89.422h-2V78.98z" fill="#000000" data-fill-palette-color="accent"></path><rect x="12" y="109.8857422" width="39.8930664" height="5.4765625" fill="#000000" data-fill-palette-color="accent"></rect><path d="M12 107.886h39.893V81.012H12V107.886zM41.259 88.133h2v13.276h-2V88.133zM30.947 88.133h2v13.276h-2V88.133zM20.634 88.133h2v13.276h-2V88.133z" fill="#000000" data-fill-palette-color="accent"></path><rect x="98.1069336" y="109.8857422" width="39.8930664" height="5.4765625" fill="#000000" data-fill-palette-color="accent"></rect><path d="M98.107 81.012v26.874H138V81.012H98.107zM108.741 101.409h-2V88.133h2V101.409zM119.053 101.409h-2V88.133h2V101.409zM129.366 101.409h-2V88.133h2V101.409z" fill="#000000" data-fill-palette-color="accent"></path><polygon points="81.9272461,59.0986328 75.6230469,59.0986328 75.6230469,49.3210449 92.2979126,43.1662598 75.6230469,37.8603516    75.6230469,34.6376953 73.6230469,34.6376953 73.6230469,59.0986328 67.3183594,59.0986328 67.3183594,65.6054688    81.9272461,65.6054688  " fill="#000000" data-fill-palette-color="accent"></polygon></g></svg></g></svg></g><g></g></svg></g></svg><rect width="395.52" height="207.73061039404186" fill="none" stroke="none" visibility="hidden"></rect></g></svg></g></svg>